<svg width="129" height="108" viewBox="0 0 129 108" fill="none" xmlns="http://www.w3.org/2000/svg">
<path fill-rule="evenodd" clip-rule="evenodd" d="M93.6029 12.0644C99.8608 12.3829 104.835 15.5253 109.809 19.054C126.122 30.6416 131.578 48.6206 120.4 66.2879C103.017 93.6858 62.5276 111.617 31.1313 103.342C24.1781 101.518 14.7646 99.9105 7.86486 91.0041C1.44654 82.7229 1.71397 72.8781 4.6557 63.7638C7.65092 54.4189 13.4274 45.8182 18.0272 40.2896C38.138 16.1685 78.413 -5.75422 114.837 5.80328C115.586 6.02597 116.335 5.64301 116.549 4.94797C116.763 4.25294 116.388 3.50765 115.693 3.28496C78.1988 -8.60949 36.6401 13.784 15.941 38.6081C10.218 45.5019 2.73041 57.0097 0.590969 68.9163C-0.853154 77.0541 0.162872 85.3729 5.72542 92.6094C13.053 102.097 23.055 103.955 30.4361 105.897C62.8486 114.444 104.728 95.9889 122.646 67.6923C134.68 48.7031 128.904 29.3605 111.36 16.9054C106.012 13.0768 100.556 9.76828 93.7632 9.4234C93.0144 9.38585 92.3728 9.94706 92.3728 10.676C92.3193 11.4048 92.9076 12.0269 93.6029 12.0644Z" fill="#1E1B4B"/>
</svg>
