<svg width="85" height="111" viewBox="0 0 85 111" fill="none" xmlns="http://www.w3.org/2000/svg">
<g clip-path="url(#clip0_57_3144)">
<path d="M-32.9666 110.929L-0.953762 79.8142L31.2174 48.5506L49.0394 31.2286C49.5494 30.7294 49.4087 30.2128 48.7141 30.0289C47.9843 29.8362 46.8589 30.1427 46.3138 30.6681L14.5207 61.564L-17.6416 92.8364L-35.6922 110.369C-36.2022 110.868 -36.0615 111.384 -35.3669 111.568C-34.6372 111.761 -33.5117 111.454 -32.9666 110.929Z" fill="#FB923C"/>
<path d="M63.3006 18.9859C65.6569 17.0943 68.0308 15.2203 70.3344 13.2674C70.5278 13.101 70.7477 12.8032 70.6773 12.523C70.607 12.2428 70.2553 12.0939 70.0091 12.0501C69.1474 11.8925 68.2506 12.1902 67.5736 12.6981C65.1206 14.5459 62.7203 16.4638 60.3112 18.3729C60.1001 18.5393 59.8628 18.8808 59.9419 19.1698C60.021 19.4588 60.3991 19.6339 60.6629 19.6777C61.5685 19.8441 62.5796 19.5464 63.2918 18.9771L63.3006 18.9859Z" fill="#FB923C"/>
<path d="M14.9339 26.0268C32.5538 42.5081 49.7691 59.4184 67.1164 76.1887C71.9522 80.8651 76.7968 85.524 81.6677 90.1654C82.5294 90.9798 85.7298 89.71 84.8242 88.8431C67.3802 72.2041 50.2176 55.2762 32.8 38.6198C27.9202 33.9521 23.0229 29.3108 18.0992 24.7044C17.2287 23.89 14.0283 25.1773 14.9427 26.0268H14.9339Z" fill="#FB923C"/>
<path d="M-11.2496 1.98793C0.716769 13.5301 12.7447 25.0197 24.799 36.483C36.906 47.9902 49.0482 59.4623 61.208 70.9081C68.0132 77.3184 74.8273 83.7288 81.6325 90.1304C82.4942 90.9448 85.6946 89.6663 84.789 88.8081C72.682 77.4323 60.5837 66.0478 48.5119 54.637C36.3697 43.1649 24.2538 31.6665 12.182 20.1331C5.41187 13.6614 -1.34943 7.17227 -8.09314 0.674336C-8.946 -0.148852 -12.1552 1.12096 -11.2496 1.99669V1.98793Z" fill="#FB923C"/>
<path d="M-11.5046 1.69893C-8.86687 4.2298 -6.22917 6.76942 -3.57389 9.28277C-3.02876 9.79946 -1.93852 9.59804 -1.32305 9.3178C-0.944983 9.14266 0.145267 8.50337 -0.417441 7.96042C-3.05514 5.39452 -5.72801 2.86366 -8.38329 0.315274C-8.92841 -0.201408 -10.0187 0.00876732 -10.6341 0.280244C-11.0122 0.446634 -12.1024 1.09468 -11.5397 1.63763C-8.87566 4.17725 -6.21158 6.70812 -3.57389 9.28277L-0.417441 7.96042C-3.08152 5.44707 -5.71042 2.90744 -8.34812 0.376575C-8.89324 -0.148865 -9.98349 0.0700686 -10.599 0.341546C-10.977 0.507935 -12.0673 1.15598 -11.5046 1.69893Z" fill="#FB923C"/>
<path d="M79.6543 83.7025C68.1539 72.9222 56.7151 62.0719 45.2939 51.2041C33.8726 40.3362 22.469 29.4597 11.0302 18.6006C4.67332 12.5755 -1.69233 6.55049 -8.07556 0.542966C-8.9372 -0.271465 -12.1376 1.0071 -11.232 1.86532C0.180439 12.593 11.5313 23.3908 22.8734 34.1886C34.2947 45.0564 45.6983 55.9418 57.1459 66.7834C63.5819 72.8785 70.0267 78.9648 76.4978 85.0249C77.3683 85.8393 80.5599 84.552 79.6543 83.7025Z" fill="#FB923C"/>
<path d="M-12.6564 3.57298C-5.34996 21.3766 1.62236 39.3204 8.51554 57.2904C15.4087 75.2604 22.2228 93.2567 29.2303 111.183C33.1868 121.315 37.2049 131.421 41.3285 141.483C41.8121 142.657 45.162 141.641 44.7223 140.573C37.3983 122.708 30.4084 104.703 23.4977 86.6712C16.6045 68.7012 9.79043 50.7049 2.78294 32.7787C-1.15602 22.7077 -5.15653 12.6631 -9.26255 2.66222C-9.74612 1.48874 -13.096 2.50459 -12.6564 3.57298Z" fill="#FB923C"/>
<path d="M-34.0305 112.348C-18.7495 109.291 -3.43324 106.384 11.8918 103.503C27.1465 100.63 42.41 97.7842 57.6471 94.833C66.2723 93.1691 74.8888 91.4615 83.5053 89.7188C84.0064 89.6137 85.1582 89.097 84.9736 88.4227C84.7802 87.7046 83.5141 87.9323 83.0481 88.0286C67.8198 91.1287 52.5563 94.0536 37.284 96.9435C22.0118 99.8335 6.76586 102.662 -8.48003 105.578C-17.1493 107.233 -25.8185 108.924 -34.4789 110.649C-34.9801 110.745 -36.1319 111.271 -35.9473 111.945C-35.7538 112.663 -34.4877 112.435 -34.0217 112.339L-34.0305 112.348Z" fill="#FB923C"/>
<path d="M69.6222 11.6823C66.2723 28.4788 62.9137 45.2754 59.4671 62.0544C56.0117 78.9035 52.4684 95.7351 48.758 112.532C46.6655 121.998 44.5289 131.456 42.322 140.897C42.0319 142.14 45.4521 141.632 45.7159 140.476C49.6197 123.785 53.3212 107.041 56.8821 90.2705C60.4606 73.4477 63.916 56.5986 67.3098 39.7407C69.2266 30.2478 71.1169 20.7461 73.0161 11.2532C73.271 9.9746 69.8508 10.5175 69.6222 11.6735V11.6823Z" fill="#FB923C"/>
<path d="M61.0145 21.0876L71.6884 11.8924C72.2248 11.4283 72.0401 10.8415 71.3631 10.6927C70.5718 10.5175 69.5695 10.8153 68.9628 11.332L58.2889 20.5271C57.7526 20.9913 57.9372 21.578 58.6142 21.7269C59.4056 21.902 60.4079 21.6043 61.0145 21.0876Z" fill="#FB923C"/>
<path d="M48.169 32.4984C56.3019 25.475 64.5139 18.548 72.8139 11.7173C73.3854 11.2444 73.1392 10.6839 72.4885 10.5175C71.706 10.3161 70.6949 10.6576 70.0882 11.1568C61.7971 17.9875 53.5762 24.9146 45.4433 31.9379C44.8894 32.4196 45.1092 32.9625 45.7686 33.1377C46.5336 33.3391 47.5799 33.0063 48.169 32.4984Z" fill="#FB923C"/>
<path d="M50.1648 29.4509L59.5902 21.9984C60.1441 21.5605 59.9331 20.9212 59.2649 20.7986C58.4296 20.6498 57.5152 20.9212 56.8646 21.4379L47.4392 28.8904C46.8853 29.3283 47.0963 29.9676 47.7645 30.0902C48.5998 30.239 49.5142 29.9676 50.1648 29.4509Z" fill="#FB923C"/>
<path d="M51.6331 28.6452C56.3106 24.6431 61.0145 20.6673 65.6569 16.6214C66.1756 16.166 65.9998 15.6056 65.3404 15.4567C64.5666 15.2903 63.6083 15.5793 63.0104 16.0785C58.2801 20.0455 53.6026 24.0739 48.9075 28.0848C48.3624 28.5489 48.5558 29.1356 49.2328 29.2845C50.0241 29.4597 51.0265 29.1619 51.6419 28.6452H51.6331Z" fill="#FB923C"/>
<path d="M45.8214 34.4426C49.1097 31.5351 52.4596 28.7153 55.8534 25.9392C56.3986 25.4926 56.1875 24.9058 55.5369 24.7657C54.7368 24.5906 53.8048 24.8971 53.1806 25.3963C49.734 28.1373 46.3753 30.9747 43.0694 33.8821C42.5331 34.355 42.7089 34.9417 43.3947 35.0906C44.1772 35.2658 45.2147 34.9768 45.8126 34.4426H45.8214Z" fill="#FB923C"/>
</g>
<defs>
<clipPath id="clip0_57_3144">
<rect width="121" height="142" fill="white" transform="translate(-36)"/>
</clipPath>
</defs>
</svg>
