<svg width="48" height="48" viewBox="0 0 48 48" fill="none" xmlns="http://www.w3.org/2000/svg">
<rect width="48" height="48" rx="8" fill="#030712"/>
<path d="M39 24L19 24M39 14L19 14M39 34L19 34M12.3333 24C12.3333 24.9205 11.5871 25.6666 10.6667 25.6666C9.74619 25.6666 9 24.9205 9 24C9 23.0795 9.74619 22.3333 10.6667 22.3333C11.5871 22.3333 12.3333 23.0795 12.3333 24ZM12.3333 14C12.3333 14.9205 11.5871 15.6666 10.6667 15.6666C9.74619 15.6666 9 14.9205 9 14C9 13.0795 9.74619 12.3333 10.6667 12.3333C11.5871 12.3333 12.3333 13.0795 12.3333 14ZM12.3333 34C12.3333 34.9205 11.5871 35.6666 10.6667 35.6666C9.74619 35.6666 9 34.9205 9 34C9 33.0795 9.74619 32.3333 10.6667 32.3333C11.5871 32.3333 12.3333 33.0795 12.3333 34Z" stroke="white" stroke-width="2" stroke-linecap="round" stroke-linejoin="round"/>
</svg>
