<svg width="48" height="48" viewBox="0 0 48 48" fill="none" xmlns="http://www.w3.org/2000/svg">
<path d="M19.5 41.5L22.4459 43.1366C23.0132 43.4517 23.2968 43.6093 23.5971 43.6711C23.8629 43.7257 24.1371 43.7257 24.4029 43.6711C24.7032 43.6093 24.9869 43.4517 25.5541 43.1366L28.5 41.5M10.5 36.5L7.64594 34.9144C7.04691 34.5816 6.74737 34.4152 6.52927 34.1785C6.33632 33.9691 6.19029 33.721 6.10097 33.4506C6 33.145 6 32.8024 6 32.1171V29M6 19V15.8829C6 15.1976 6 14.855 6.10097 14.5494C6.19029 14.279 6.33632 14.0308 6.52927 13.8215C6.74737 13.5848 7.0469 13.4184 7.64594 13.0856L10.5 11.5M19.5 6.49999L22.4459 4.86335C23.0132 4.54823 23.2968 4.39068 23.5971 4.32891C23.8629 4.27424 24.1371 4.27424 24.4029 4.32891C24.7032 4.39068 24.9869 4.54823 25.5541 4.86335L28.5 6.49999M37.5 11.5L40.3541 13.0856C40.9531 13.4184 41.2526 13.5848 41.4707 13.8215C41.6637 14.0308 41.8097 14.279 41.899 14.5494C42 14.8549 42 15.1976 42 15.8829V19M42 29V32.1171C42 32.8024 42 33.145 41.899 33.4506C41.8097 33.721 41.6637 33.9691 41.4707 34.1785C41.2526 34.4152 40.9531 34.5816 40.3541 34.9144L37.5 36.5M19.5 21.5L24 24M24 24L28.5 21.5M24 24V29M6 14L10.5 16.5M37.5 16.5L42 14M24 39V44" stroke="#030712" stroke-width="2" stroke-linecap="round" stroke-linejoin="round"/>
</svg>
