<svg width="42" height="30" viewBox="0 0 42 30" fill="none" xmlns="http://www.w3.org/2000/svg">
<path d="M17 20.0694C19.4671 18.6435 22.5327 18.6435 24.9998 20.0694M1 21L2.40298 6.97023C2.45617 6.4383 2.48277 6.17234 2.52355 5.94416C3.00445 3.25403 5.2424 1.22871 7.96704 1.01788C8.19814 1 8.46542 1 9 1M41 21L39.597 6.97023C39.5438 6.43832 39.5172 6.17233 39.4764 5.94416C38.9956 3.25403 36.7576 1.22871 34.033 1.01788C33.8019 1 33.5346 1 33 1M14.6569 15.3431C17.781 18.4673 17.781 23.5327 14.6569 26.6569C11.5327 29.781 6.46735 29.781 3.34314 26.6569C0.218953 23.5327 0.218953 18.4673 3.34314 15.3431C6.46733 12.219 11.5327 12.219 14.6569 15.3431ZM38.6569 15.3431C41.781 18.4673 41.781 23.5327 38.6569 26.6569C35.5327 29.781 30.4673 29.781 27.3431 26.6569C24.219 23.5327 24.219 18.4673 27.3431 15.3431C30.4673 12.219 35.5327 12.219 38.6569 15.3431Z" stroke="#030712" stroke-width="2" stroke-linecap="round" stroke-linejoin="round"/>
</svg>
