<svg width="110" height="113" viewBox="0 0 110 113" fill="none" xmlns="http://www.w3.org/2000/svg">
<g clip-path="url(#clip0_57_3169)">
<path d="M58.6694 35.5869C61.4812 27.975 63.5694 18.0945 57.4671 11.4261C50.9298 4.27471 39.356 6.68201 32.2373 11.491C15.8506 22.55 17.2836 45.5729 23.0625 62.0843C26.6175 72.237 32.5834 81.9015 32.2576 92.989C32.2113 94.473 36.3872 94.7924 36.4216 93.3708C36.6801 84.3376 32.8682 76.0581 29.4695 67.8978C26.0707 59.7375 23.6813 51.4719 23.2792 42.7174C22.8771 33.9628 24.4387 25.2665 29.7948 18.4054C32.4517 15.0171 35.9691 12.258 39.9521 10.5937C43.3783 9.16849 47.6031 8.23842 51.0778 10.0334C55.2106 12.1604 57.0806 17.0318 57.2511 21.4312C57.4217 25.8306 56.2582 30.4599 54.7078 34.6572C54.1295 36.2227 58.2141 36.8197 58.6694 35.5869Z" fill="#FB923C"/>
<path d="M58.7221 35.8065C65.2772 30.289 73.8082 27.0913 82.3732 26.7304C86.5082 26.5566 90.6976 27.0811 94.5865 28.5399C95.5581 28.8987 96.5178 29.32 97.4362 29.7926C98.211 30.2011 99.6366 30.75 100.194 31.4451C100.751 32.1402 101.075 33.5275 101.302 34.423C101.583 35.5051 101.687 36.6111 101.623 37.7214C101.38 41.9124 98.6306 45.4 95.5728 48.0621C92.2398 50.956 88.3938 53.2157 84.542 55.3399C79.9363 57.8749 75.1957 60.1711 70.621 62.7732C66.0463 65.3752 61.2934 68.2784 56.7698 71.2552C46.868 77.7714 37.4699 85.0074 28.6116 92.8654C27.1857 94.1288 31.1221 95.127 32.1157 94.2487C40.4467 86.852 49.267 80.003 58.5304 73.7958C63.3463 70.5711 68.2794 67.5121 73.3029 64.6311C78.3264 61.7501 83.2782 59.3651 88.2109 56.6395C92.3322 54.3592 96.4783 51.9212 99.928 48.6812C102.999 45.8017 105.691 42.1373 105.811 37.7673C105.861 35.6397 105.382 32.7388 104.09 30.9828C103.506 30.1779 102.378 29.6389 101.523 29.1452C100.467 28.5326 99.3754 27.9849 98.2587 27.5057C93.9069 25.6092 89.1462 24.729 84.428 24.6096C74.0428 24.3426 63.2165 27.7154 55.2377 34.4305C53.7968 35.6439 57.7223 36.6714 58.7418 35.8138L58.7221 35.8065Z" fill="#FB923C"/>
</g>
<defs>
<clipPath id="clip0_57_3169">
<rect width="84" height="89" fill="white" transform="translate(30.8385) rotate(20.2734)"/>
</clipPath>
</defs>
</svg>
