<svg width="46" height="49" viewBox="0 0 46 49" fill="none" xmlns="http://www.w3.org/2000/svg">
<path fill-rule="evenodd" clip-rule="evenodd" d="M15.2237 45.7265C10.8791 44.528 6.33044 43.9235 1.91796 43.3697C0.967581 43.2536 0.0852183 43.9015 0.017334 44.8143C-0.118435 45.7278 0.560806 46.5632 1.4433 46.6793C5.72001 47.2125 10.1321 47.783 14.273 48.9367C15.1555 49.1869 16.1063 48.6718 16.3778 47.7857C16.6494 46.9002 16.1062 45.9774 15.2237 45.7265Z" fill="#1E1B4B"/>
<path fill-rule="evenodd" clip-rule="evenodd" d="M28.3927 28.7358C21.4006 21.7221 13.526 15.6113 6.66969 8.40942C6.05873 7.73681 4.97259 7.70077 4.29374 8.32867C3.6149 8.95724 3.54728 10.0142 4.22613 10.6868C11.0824 17.9093 18.957 24.0402 25.9491 31.0746C26.6279 31.7312 27.7138 31.7405 28.3927 31.0946C29.0036 30.4494 29.0715 29.3924 28.3927 28.7358Z" fill="#1E1B4B"/>
<path fill-rule="evenodd" clip-rule="evenodd" d="M41.4952 1.75877C41.6989 5.77307 41.9021 9.78736 42.1058 13.8023C42.1058 14.7218 42.9208 15.4318 43.8712 15.3871C44.8216 15.3417 45.5 14.559 45.5 13.6389C45.2964 9.61788 45.0931 5.59757 44.8894 1.57727C44.8216 0.657767 44.0068 -0.0475385 43.0564 0.00250682C42.1739 0.0525521 41.4273 0.839934 41.4952 1.75877Z" fill="#1E1B4B"/>
</svg>
