<svg width="48" height="48" viewBox="0 0 48 48" fill="none" xmlns="http://www.w3.org/2000/svg">
<rect width="48" height="48" rx="12" fill="url(#paint0_linear_193_991)"/>
<path d="M24 41.8125C33.8375 41.8125 41.8125 33.8375 41.8125 24C41.8125 14.1625 33.8375 6.1875 24 6.1875C14.1625 6.1875 6.1875 14.1625 6.1875 24C6.1875 33.8375 14.1625 41.8125 24 41.8125ZM8.5887 23.1094C9.02778 15.392 15.1348 9.19158 22.8125 8.60748V10.9518C22.8125 11.5041 23.2602 11.9518 23.8125 11.9518H24.1875C24.7398 11.9518 25.1875 11.5041 25.1875 10.9518V8.60748C32.8652 9.19158 38.9722 15.392 39.4113 23.1094H37.2687C36.7164 23.1094 36.2687 23.5571 36.2687 24.1094V24.4844C36.2687 25.0367 36.7164 25.4844 37.2687 25.4844H39.3662C38.6563 32.9239 32.6673 38.8235 25.1875 39.3925V37.4935C25.1875 36.9412 24.7398 36.4935 24.1875 36.4935H23.8125C23.2602 36.4935 22.8125 36.9412 22.8125 37.4935V39.3925C15.3327 38.8235 9.34373 32.9239 8.63382 25.4844H10.727C11.2793 25.4844 11.727 25.0367 11.727 24.4844V24.1094C11.727 23.5571 11.2793 23.1094 10.727 23.1094H8.5887Z" fill="white"/>
<path fill-rule="evenodd" clip-rule="evenodd" d="M24 18.9352C25.2433 18.9352 26.2513 17.9273 26.2513 16.6839C26.2513 15.4406 25.2433 14.4326 24 14.4326V18.9352Z" fill="white"/>
<path d="M21.7487 16.6839C21.7487 17.9273 22.7566 18.9352 24 18.9352V14.4326C22.7566 14.4326 21.7487 15.4406 21.7487 16.6839Z" fill="white"/>
<path d="M16.7235 19.5786C16.4356 19.5786 16.1595 19.693 15.956 19.8965C15.7524 20.1001 15.638 20.3762 15.638 20.664C15.638 20.9519 15.7524 21.228 15.956 21.4316C16.1595 21.6351 16.4356 21.7495 16.7235 21.7495H20.8192C21.097 21.7495 21.4223 21.8737 21.6064 22.3525C21.8215 22.9085 21.7161 23.9823 21.5835 24.8141L21.4098 25.797C21.4101 25.7996 21.4099 25.8022 21.409 25.8046C21.4082 25.807 21.4068 25.8093 21.405 25.8111L20.014 33.7232C19.9636 34.0104 20.0289 34.3059 20.1958 34.545C20.3627 34.7842 20.6175 34.9475 20.9045 34.9992C21.0464 35.0243 21.1918 35.021 21.3324 34.9894C21.473 34.9578 21.6059 34.8986 21.7234 34.8152C21.8409 34.7319 21.9407 34.626 22.0169 34.5037C22.0932 34.3815 22.1444 34.2453 22.1676 34.1031L23.1288 28.6035C23.1288 28.6035 23.4372 27.2973 24 27.2973V19.5786H16.7235Z" fill="white"/>
<path d="M24 27.2973C24.5721 27.2973 24.874 28.6035 24.874 28.6035L25.8352 34.1079C25.8585 34.2514 25.91 34.3888 25.9869 34.5121C26.0638 34.6354 26.1645 34.7422 26.2831 34.8262C26.4016 34.9103 26.5358 34.9698 26.6776 35.0015C26.8194 35.0332 26.9662 35.0363 27.1092 35.0107C27.2523 34.9851 27.3888 34.9312 27.5108 34.8523C27.6329 34.7734 27.738 34.671 27.82 34.5511C27.9021 34.4311 27.9595 34.296 27.9888 34.1537C28.0181 34.0114 28.0188 33.8646 27.9908 33.722L26.5995 25.8099C26.5998 25.8074 26.5995 25.8048 26.5987 25.8024C26.598 25.7999 26.5967 25.7977 26.595 25.7958L26.421 24.8129C26.2883 23.9811 26.183 22.9073 26.398 22.3513C26.5814 21.8737 26.9171 21.7483 27.1731 21.7483H31.2765C31.5644 21.7483 31.8405 21.6339 32.0441 21.4304C32.2476 21.2268 32.362 20.9507 32.362 20.6628C32.362 20.375 32.2476 20.0989 32.0441 19.8953C31.8405 19.6918 31.5644 19.5774 31.2765 19.5774V19.5786H24V27.2973Z" fill="white"/>
<defs>
<linearGradient id="paint0_linear_193_991" x1="0" y1="0" x2="49.7886" y2="1.93312" gradientUnits="userSpaceOnUse">
<stop stop-color="#3730A3"/>
<stop offset="0.296875" stop-color="#7E22CE"/>
<stop offset="0.651042" stop-color="#BE185D"/>
<stop offset="1" stop-color="#C2410C"/>
</linearGradient>
</defs>
</svg>
