<svg width="152" height="143" viewBox="0 0 152 143" fill="none" xmlns="http://www.w3.org/2000/svg">
<g clip-path="url(#clip0_57_3137)">
<path d="M9.34077 76.2962C9.37706 72.1404 9.46199 67.7892 11.2646 63.9422C12.7577 60.7703 15.5348 58.4866 18.9654 57.7197C21.8143 57.0798 24.9481 57.4559 27.3793 59.0853C30.1296 60.926 31.8088 64.1311 32.4932 67.3139C33.3444 71.213 32.8532 75.2791 31.1631 78.9118L35.3951 80.4409C37.6401 70.5813 41.7015 61.1931 47.42 52.8275C53.1385 44.4619 59.9615 37.3303 68.2605 32.3434C72.0528 30.071 76.3875 28.3576 80.8349 28.2658C84.7265 28.192 88.5068 29.5188 91.6517 31.7511C98.7965 36.8154 102.144 45.3472 101.743 54.0017C101.506 58.9474 100.056 63.8578 97.7658 68.2553C96.7501 70.2068 95.5785 72.0745 93.9678 73.5959C92.6706 74.8146 90.8554 76.1414 89.0016 75.6693L91.1387 77.9337C94.4143 74.5976 98.9844 74.7449 103.186 75.8317C105.391 76.3974 107.521 77.2676 109.607 78.1831C112.162 79.3127 114.715 80.5693 116.931 82.2898C126.754 89.9092 121.208 105.05 115.409 113.602C111.646 119.145 106.446 123.783 100.546 126.935C98.7503 127.892 102.491 129.905 103.726 129.28C115.41 123.393 124.31 111.663 126.259 98.6254C126.706 95.612 126.789 92.4702 125.873 89.5456C124.882 86.403 122.911 83.8473 120.418 81.7664C117.925 79.6854 114.796 78.0249 111.738 76.6575C109.108 75.4744 106.442 74.3946 103.663 73.604C98.2768 72.0812 91.5468 71.5019 87.2434 75.8888C86.1951 76.9507 88.7204 77.996 89.3805 78.1533C98.7991 80.5172 103.941 67.5016 105.401 60.3804C107.335 50.9275 105.178 40.9874 98.3946 34.0221C91.6111 27.0568 81.3983 23.8807 71.8794 26.826C67.1578 28.2807 62.861 31.0022 59.0116 34.0759C54.7356 37.4877 50.8451 41.4121 47.3886 45.654C39.5305 55.3227 33.8811 66.7581 31.2004 78.9126C30.8607 80.4588 34.7669 81.9122 35.4325 80.4416C38.823 73.0176 37.315 63.5203 30.7345 58.4439C24.6174 53.7691 13.9023 53.1089 8.78948 59.7833C5.37011 64.2423 5.2296 70.0588 5.19695 75.4155C5.19179 76.8269 9.32118 78.0162 9.34077 76.2962Z" fill="#FB923C"/>
</g>
<defs>
<clipPath id="clip0_57_3137">
<rect width="122.584" height="88.3131" fill="white" transform="translate(50.7263) rotate(35.057)"/>
</clipPath>
</defs>
</svg>
