<svg width="56" height="65" viewBox="0 0 56 65" fill="none" xmlns="http://www.w3.org/2000/svg">
<g clip-path="url(#clip0_57_3097)">
<path d="M14.297 24.2345C24.762 18.3073 35.2269 12.38 45.6919 6.45279C48.6591 4.76974 51.6395 3.10001 54.5868 1.37705C54.9926 1.14422 55.3252 0.658601 54.8196 0.345941C54.314 0.033281 53.4225 0.332636 52.9502 0.592077C42.4054 6.38626 31.987 12.4266 21.522 18.3538L12.5939 23.4096C12.1681 23.6491 11.8288 24.168 12.3544 24.4873C12.8799 24.8066 13.818 24.5072 14.3103 24.2278L14.297 24.2345Z" fill="#1E1B4B"/>
<path d="M52.6308 1.08424C52.4512 14.9943 52.1385 28.9043 51.6861 42.8077C51.5597 46.7792 51.4133 50.7506 51.267 54.7221C51.2271 55.7731 53.8017 55.2542 53.835 54.4027C54.3672 40.4994 54.7597 26.596 55.0192 12.6859C55.0924 8.71447 55.1523 4.73637 55.2055 0.764923C55.2188 -0.292799 52.6441 0.239388 52.6375 1.08424H52.6308Z" fill="#1E1B4B"/>
<path d="M12.228 24.1944C23.152 31.5852 33.078 40.2998 43.1372 48.7948C45.958 51.1763 48.7988 53.5446 51.6728 55.8662C52.1318 56.2388 52.8703 56.1124 53.3759 55.8928C53.6287 55.7864 54.5202 55.2343 54.0612 54.8617C43.7226 46.5064 33.8764 37.539 23.3116 29.4631C20.3578 27.208 17.3507 25.026 14.2704 22.9438C13.5785 22.4781 11.2034 23.496 12.228 24.1878V24.1944Z" fill="#1E1B4B"/>
<path d="M52.4578 0.705194C44.9334 9.04723 37.5421 17.509 30.2838 26.0772C28.2148 28.5186 26.1591 30.9733 24.11 33.4347C23.7108 33.9137 24.4493 34.1731 24.8085 34.1931C25.4206 34.2263 26.1125 33.9669 26.505 33.4946C33.6901 24.8598 41.0016 16.3315 48.4528 7.92298C50.5751 5.52814 52.7106 3.13995 54.8529 0.758412C55.2786 0.286096 54.4936 0.0200026 54.1543 4.55405e-05C53.5223 -0.0332162 52.877 0.23953 52.4578 0.698541V0.705194Z" fill="#1E1B4B"/>
<path d="M49.484 2.40156C45.0798 12.3335 40.8752 22.3652 36.8968 32.4768C35.7658 35.3439 34.6548 38.2177 33.5571 41.0982C33.3442 41.6503 34.382 41.677 34.6681 41.6503C35.207 41.5905 35.9188 41.331 36.1317 40.7789C39.997 30.6208 44.0686 20.5425 48.3597 10.5573C49.5772 7.72343 50.8079 4.90284 52.0587 2.08225C52.2982 1.53675 51.2071 1.50349 50.9476 1.5301C50.3821 1.59663 49.7302 1.85607 49.484 2.40156Z" fill="#1E1B4B"/>
<path d="M33.2643 40.4929C31.4481 43.1871 29.4988 45.7748 27.5961 48.4091C27.2568 48.8748 27.8822 49.1143 28.2547 49.1276C28.8335 49.1476 29.4922 48.9214 29.8647 48.4624C31.9071 45.9345 33.7633 43.2403 35.5795 40.5461C35.9055 40.0605 35.3001 39.8276 34.9076 39.8143C34.3621 39.801 33.5903 40.0072 33.2643 40.4929Z" fill="#1E1B4B"/>
<path d="M24.9416 34.4126C25.547 39.8209 25.9994 45.2759 26.811 50.6642C26.9374 51.5024 29.3192 50.9037 29.2526 50.0123C28.8402 44.5774 28.0684 39.1557 27.4564 33.7407C27.3632 32.9092 24.8351 33.4679 24.9416 34.4126Z" fill="#1E1B4B"/>
<path d="M30.9491 49.5999C32.0735 48.5688 33.2377 47.5843 34.4419 46.6463C35.646 45.7083 36.8835 44.9167 38.1409 43.992C38.5134 43.7126 38.4403 43.2869 38.0211 43.1472C37.4889 42.9676 36.8303 43.1472 36.3646 43.4199C34.9874 44.2182 33.6901 45.2161 32.4327 46.1873C31.1753 47.1585 30.031 48.1364 28.8934 49.1809C28.7537 49.3072 28.5807 49.5268 28.6406 49.733C28.7005 49.9392 28.9533 50.0457 29.1395 50.0856C29.7183 50.212 30.51 50.0057 30.9558 49.5999H30.9491Z" fill="#1E1B4B"/>
<path d="M33.2577 45.7481C34.0494 44.9898 34.8477 44.238 35.6394 43.473C35.7658 43.3466 35.9255 43.1604 35.8723 42.9608C35.819 42.7612 35.5862 42.6681 35.4132 42.6348C35.1205 42.5816 34.8078 42.6016 34.5284 42.688C34.249 42.7745 33.9496 42.881 33.7367 43.0872C32.9317 43.8389 32.1333 44.5973 31.335 45.3556C31.2019 45.482 31.0423 45.6749 31.0955 45.8745C31.1487 46.0741 31.3882 46.1739 31.5612 46.2071C31.8539 46.2604 32.1733 46.2404 32.4593 46.1539C32.7454 46.0674 33.0448 45.9543 33.2577 45.7481Z" fill="#1E1B4B"/>
<path d="M30.2439 46.9921L30.0044 47.1118C29.7383 47.2449 30.1774 47.0254 29.9645 47.1318L31.3882 47.817C32.7188 46.3668 34.1026 44.9698 35.513 43.5928C35.6394 43.4664 35.7991 43.2801 35.7458 43.0805C35.6926 42.881 35.4598 42.7878 35.2868 42.7546C34.7479 42.6548 34.0161 42.8144 33.6036 43.2069C32.1733 44.5573 30.8028 45.9743 29.4789 47.4312C29.3724 47.5509 29.1728 47.7505 29.246 47.9434C29.3059 48.103 29.4389 48.1829 29.5986 48.2361C30.1175 48.4024 30.7163 48.2361 31.1753 47.9767C31.355 47.8769 31.5346 47.7904 31.7076 47.6973C32.0336 47.5243 32.4061 46.9988 31.9138 46.7726C31.3749 46.5331 30.7296 46.746 30.2373 46.9921H30.2439Z" fill="#1E1B4B"/>
<path d="M34.6215 44.8567C35.1404 44.0252 35.6594 43.1936 36.1583 42.3488C36.2515 42.1825 36.2914 42.0095 36.1583 41.8498C36.0253 41.6902 35.7059 41.637 35.5063 41.637C35.187 41.637 34.8544 41.6902 34.5616 41.8232C34.3221 41.9297 34.0627 42.0694 33.9163 42.2955C33.3774 43.1204 32.8652 43.9653 32.3462 44.8035C32.2464 44.9698 32.2132 45.1494 32.3462 45.3091C32.4793 45.4687 32.8053 45.5219 33.0049 45.5219C33.3309 45.5219 33.6701 45.4687 33.9629 45.329C34.2024 45.2226 34.4751 45.0829 34.6215 44.85V44.8567Z" fill="#1E1B4B"/>
<path d="M34.2689 43.2801C34.6282 43.7191 34.9874 44.1582 35.36 44.5906C35.4332 44.6638 35.5263 44.717 35.6328 44.7369C35.7525 44.7835 35.8789 44.8035 36.012 44.8035C36.1716 44.8035 36.3247 44.7901 36.4777 44.7569C36.644 44.7303 36.8037 44.6837 36.9567 44.6172L37.2294 44.4775C37.3758 44.391 37.5022 44.2846 37.602 44.1449L37.6818 43.9719C37.7085 43.8522 37.6818 43.7457 37.5954 43.6526C37.2494 43.2069 36.8901 42.7678 36.5375 42.3354C36.4577 42.2556 36.3712 42.209 36.2648 42.1891C36.145 42.1425 36.012 42.1226 35.8789 42.1226C35.7192 42.1226 35.5596 42.1359 35.4066 42.1691C35.2402 42.1957 35.0806 42.2423 34.9209 42.3088L34.6481 42.4485C34.5018 42.535 34.3754 42.6481 34.2689 42.7811L34.1824 42.9608C34.1558 43.0871 34.1824 43.1936 34.2689 43.2867V43.2801Z" fill="#1E1B4B"/>
<path d="M3.32643 33.4279L0.239503 36.5146C0.113099 36.641 -0.0465697 36.8206 0.00665318 37.0202C0.0598761 37.2065 0.292726 37.3129 0.459048 37.3395C0.745121 37.3927 1.05115 37.3728 1.33057 37.2863C1.60999 37.1998 1.90937 37.1 2.10896 36.8938L5.20254 33.8071C5.32895 33.6807 5.48861 33.5011 5.43539 33.3015C5.38217 33.1153 5.14932 33.0088 4.983 32.9822C4.69692 32.929 4.39089 32.949 4.11147 33.0355C3.83205 33.1219 3.53267 33.2217 3.33309 33.4279H3.32643Z" fill="#1E1B4B"/>
<path d="M13.1328 38.8762L7.50443 44.5107C7.37803 44.6371 7.21836 44.8167 7.27158 45.0229C7.3248 45.2092 7.55765 45.3156 7.73063 45.3489C8.25621 45.4487 9.00798 45.2957 9.4005 44.9032L15.0355 39.2687C15.1619 39.1423 15.3215 38.956 15.2683 38.7564C15.2151 38.5635 14.9823 38.4637 14.8093 38.4305C14.2837 38.3307 13.5253 38.4837 13.1328 38.8828V38.8762Z" fill="#1E1B4B"/>
<path d="M32.9317 53.0524C31.1753 54.9883 29.419 56.9307 27.6693 58.8666C27.5429 58.9996 27.3765 59.1726 27.4364 59.3788C27.4896 59.5717 27.7291 59.6715 27.8955 59.7048C28.4011 59.7979 29.2061 59.6582 29.5786 59.2524C31.3416 57.3166 33.098 55.3741 34.8544 53.4383C34.9808 53.2986 35.1471 53.1323 35.0939 52.9194C35.0406 52.7265 34.8011 52.62 34.6282 52.5868C34.1159 52.4936 33.3042 52.6333 32.9317 53.0391V53.0524Z" fill="#1E1B4B"/>
<path d="M49.8166 59.0395C48.0603 60.7359 46.3106 62.4322 44.5542 64.1286C44.4278 64.2549 44.2615 64.4412 44.3147 64.6408C44.3679 64.8403 44.6074 64.9401 44.7804 64.9667C45.3193 65.0665 46.0578 64.9069 46.4702 64.5144C48.2333 62.818 49.9896 61.1217 51.746 59.4253C51.879 59.299 52.0387 59.106 51.9855 58.9065C51.9323 58.7069 51.6928 58.6071 51.5198 58.5738C50.9742 58.4741 50.2291 58.6337 49.8166 59.0329V59.0395Z" fill="#1E1B4B"/>
</g>
<defs>
<clipPath id="clip0_57_3097">
<rect width="55.2055" height="65" fill="white"/>
</clipPath>
</defs>
</svg>
