<svg width="97" height="74" viewBox="0 0 97 74" fill="none" xmlns="http://www.w3.org/2000/svg">
<g clip-path="url(#clip0_57_3172)">
<path d="M24.827 18.2017C25.8749 22.0243 26.848 25.8658 27.7464 29.7263C27.8751 30.2345 28.0518 30.492 28.5911 30.6099C29.1828 30.7463 29.9944 30.5567 30.5401 30.323C31.2615 30.0289 32.0014 29.6188 32.5348 29.0223C32.8593 28.6697 33.4488 28.0432 33.3163 27.52C32.3647 23.3867 31.3197 19.2611 30.1886 15.1733C30.075 14.7249 29.1803 14.6493 28.866 14.6653C28.155 14.6863 27.34 14.9882 26.7422 15.3305C25.7596 15.9135 24.4489 16.8977 24.8044 18.1756L24.827 18.2017Z" fill="#FB923C"/>
<path d="M41.4952 12.7385L44.1933 24.0806C44.322 24.5888 44.4987 24.8463 45.0379 24.9642C45.6297 25.1006 46.4412 24.911 46.987 24.6773C47.7084 24.3832 48.4482 23.9731 48.9816 23.3766C49.2912 23.0278 49.8957 22.3975 49.7632 21.8743L47.0651 10.5322C46.9363 10.024 46.7597 9.76652 46.2204 9.64862C45.6287 9.5122 44.8171 9.70188 44.2714 9.93556C43.5499 10.2297 42.8101 10.6398 42.2767 11.2362C41.9671 11.5851 41.3626 12.2154 41.4952 12.7385Z" fill="#FB923C"/>
<path d="M9.61826 57.9561C19.8075 64.9986 32.5272 67.137 44.6476 65.2756C56.768 63.4141 69.001 56.593 77.9414 47.5201C83.0683 42.3083 87.261 36.2992 90.599 29.8067C91.3208 28.3831 89.2694 28.2028 88.4091 28.3889C86.8494 28.7045 85.3967 29.7565 84.671 31.1652C79.6549 40.9619 72.061 49.7574 62.489 55.3317C52.917 60.9061 42.3048 62.7513 31.7193 60.9312C25.6121 59.8855 19.8568 57.5894 14.7491 54.0795C12.9378 52.8363 7.55947 56.5529 9.6033 57.9599L9.61826 57.9561Z" fill="#FB923C"/>
</g>
<defs>
<clipPath id="clip0_57_3172">
<rect width="86" height="54" fill="white" transform="translate(0 21.1187) rotate(-14.2152)"/>
</clipPath>
</defs>
</svg>
