<svg width="117" height="70" viewBox="0 0 117 70" fill="none" xmlns="http://www.w3.org/2000/svg">
<g clip-path="url(#clip0_57_3817)">
<path d="M41.0218 6.29813L61.3763 44.8024C62.0811 46.131 66.4339 45.7483 65.677 44.3226L45.3118 5.81521C44.607 4.4866 40.2541 4.86925 41.0111 6.29496L41.0218 6.29813Z" fill="#FB923C"/>
<path d="M35.1008 37.3197C48.21 30.5927 61.2488 23.7516 74.2419 16.7919C75.0406 16.3654 75.0584 15.683 74.2848 15.208C73.5112 14.7331 71.9879 14.6759 71.1477 15.1251C58.1653 22.0879 45.1126 28.9365 32.0034 35.6635C31.1941 36.0869 31.1976 36.7756 31.9605 37.2474C32.7841 37.7489 34.2362 37.7732 35.0976 37.3304L35.1008 37.3197Z" fill="#FB923C"/>
<path d="M34.9545 21.8573C46.2524 25.3016 57.5629 28.7031 68.8766 32.0939C69.7597 32.3567 71.1969 32.4698 71.9242 31.7772C72.6515 31.0847 71.8832 30.4364 71.1704 30.2243C59.8535 26.8442 48.5461 23.432 37.2483 19.9877C36.3759 19.7281 34.928 19.6118 34.2007 20.3043C33.4734 20.9969 34.2449 21.6345 34.9545 21.8573Z" fill="#FB923C"/>
<path d="M50.8852 42.2276C54.5905 30.6737 58.1926 19.0775 61.6958 7.46354C62.2056 5.75058 57.8376 5.40613 57.4361 6.75508C53.9404 18.3829 50.3308 29.9653 46.6255 41.5191C46.087 43.2118 50.4593 43.5809 50.8852 42.2276Z" fill="#FB923C"/>
</g>
<g clip-path="url(#clip1_57_3817)">
<path d="M90.4644 51.731L112.318 62.8468C113.073 63.2296 114.952 61.6418 114.141 61.2313L92.2818 50.1175C91.5266 49.7347 89.6478 51.3225 90.4585 51.733L90.4644 51.731Z" fill="#FB923C"/>
<path d="M97.8008 67.9253C101.651 60.5785 105.432 53.202 109.153 45.7857C109.383 45.3304 109.17 45.0107 108.66 45.043C108.15 45.0753 107.43 45.5431 107.189 46.0222C103.474 53.4365 99.6887 60.821 95.8384 68.1678C95.6033 68.6251 95.8283 68.9409 96.3324 68.9105C96.874 68.8742 97.55 68.4145 97.8028 67.9313L97.8008 67.9253Z" fill="#FB923C"/>
<path d="M92.7188 60.858C99.0343 58.7788 105.342 56.6757 111.647 54.5667C112.139 54.4013 112.837 53.9872 112.947 53.4326C113.057 52.8781 112.493 52.829 112.096 52.9625C105.793 55.0775 99.4834 57.1746 93.1678 59.2538C92.6822 59.4173 91.9783 59.8334 91.8682 60.3879C91.7582 60.9425 92.32 60.9856 92.7188 60.858Z" fill="#FB923C"/>
<path d="M106.655 65.0645C104.613 58.5465 102.51 52.0424 100.355 45.5623C100.034 44.6088 97.9127 45.8669 98.1654 46.6178C100.328 53.1019 102.423 59.602 104.466 66.12C104.767 67.0735 106.898 65.8253 106.655 65.0645Z" fill="#FB923C"/>
</g>
<g clip-path="url(#clip2_57_3817)">
<path d="M3.26064 54.4002L12.8895 68.4084C13.2227 68.8917 14.8929 68.5468 14.5351 68.0283L4.90195 54.0194C4.56874 53.5361 2.89856 53.8809 3.25637 54.3995L3.26064 54.4002Z" fill="#FB923C"/>
<path d="M2.36554 66.6936C7.14393 63.494 11.8899 60.2534 16.6128 56.9689C16.9032 56.7675 16.8793 56.5021 16.558 56.3529C16.2366 56.2037 15.6435 56.2503 15.338 56.4623C10.6194 59.7476 5.8684 62.9918 1.09001 66.1914C0.795366 66.3921 0.827807 66.6589 1.14487 66.8074C1.48679 66.9646 2.05081 66.9085 2.36479 66.6979L2.36554 66.6936Z" fill="#FB923C"/>
<path d="M1.61086 60.706C6.14615 61.5313 10.6845 62.3394 15.2235 63.1432C15.5777 63.2052 16.14 63.1842 16.3907 62.8829C16.6414 62.5816 16.3143 62.3649 16.0283 62.3149C11.4885 61.5153 6.95098 60.7029 2.41568 59.8776C2.06575 59.8164 1.49921 59.8366 1.24851 60.1379C0.997816 60.4393 1.32569 60.6516 1.61086 60.706Z" fill="#FB923C"/>
<path d="M8.70621 67.8838C9.62113 63.2375 10.4941 58.5794 11.328 53.9188C11.4483 53.2318 9.73939 53.2954 9.64463 53.8365C8.81431 58.502 7.93779 63.1551 7.02287 67.8014C6.89049 68.482 8.60216 68.4277 8.70621 67.8838Z" fill="#FB923C"/>
</g>
<defs>
<clipPath id="clip0_57_3817">
<rect width="39.7064" height="38.9278" fill="white" transform="translate(40.1052) rotate(16.5753)"/>
</clipPath>
<clipPath id="clip1_57_3817">
<rect width="22.3525" height="21.9142" fill="white" transform="translate(88.0001 49.1302) rotate(-18.602)"/>
</clipPath>
<clipPath id="clip2_57_3817">
<rect width="15.497" height="15.1931" fill="white" transform="translate(2.62103 52) rotate(9.93403)"/>
</clipPath>
</defs>
</svg>
