<svg width="222" height="185" viewBox="0 0 222 185" fill="none" xmlns="http://www.w3.org/2000/svg">
<path d="M130.156 -10.3969C129.326 -6.95801 128.223 -3.59226 126.872 -0.37324C126.694 0.0258077 126.54 0.433728 126.346 0.799376C126.26 0.98664 126.175 1.17393 126.09 1.36119C125.974 1.64653 126.307 0.921996 126.098 1.33668C126.036 1.45039 125.99 1.59748 125.927 1.71119C125.547 2.5004 125.144 3.28075 124.74 4.06108C123.908 5.61286 122.979 7.12913 121.994 8.56971C121.517 9.24096 121.04 9.91219 120.539 10.5746C120.28 10.889 120.045 11.2124 119.762 11.518C119.715 11.5827 119.581 11.6697 119.55 11.7678C119.627 11.5226 119.794 11.5024 119.644 11.6385C119.487 11.7991 119.354 11.9686 119.197 12.1292C118.215 13.2155 117.128 14.2084 115.992 15.1011C115.74 15.3086 115.464 15.5072 115.187 15.7059C115.045 15.8175 114.879 15.9202 114.737 16.0317C114.674 16.063 114.603 16.1188 114.564 16.159C114.941 15.8064 114.698 16.0719 114.595 16.1433C113.987 16.5474 113.33 16.9337 112.682 17.2955C112.041 17.6327 111.407 17.9454 110.725 18.2404C110.416 18.3723 110.083 18.4952 109.75 18.6182C109.599 18.6719 109.449 18.7256 109.298 18.7792C109.06 18.8553 109.75 18.6182 109.385 18.7568C109.266 18.7948 109.179 18.8172 109.06 18.8553C108.289 19.0902 107.503 19.2917 106.708 19.4353C105.912 19.5789 105.124 19.6156 104.312 19.7258C104.344 19.7102 104.774 19.7052 104.479 19.7055C104.368 19.719 104.264 19.7081 104.153 19.7216C103.937 19.7241 103.722 19.7266 103.483 19.7202C103.084 19.7095 102.686 19.6989 102.27 19.6549C101.457 19.6002 100.642 19.4631 99.8419 19.277C99.418 19.175 98.7997 19.4387 98.5005 19.711C98.1936 20.0077 97.9993 20.3733 97.9175 20.8079C97.7626 21.735 98.2861 22.7213 99.1995 23.0588C100.962 23.6826 102.716 24.331 104.433 25.1019C104.834 25.2774 105.203 25.4686 105.596 25.6686C105.62 25.6775 106.03 25.9109 105.757 25.7553C105.46 25.5908 105.869 25.8242 105.917 25.842C106.126 25.9464 106.327 26.0754 106.528 26.2044C107.34 26.6957 108.113 27.2272 108.846 27.7989C108.975 27.9012 109.12 28.0369 109.249 28.1393C109.313 28.1904 109.394 28.275 109.459 28.3262C109.588 28.4285 109.686 28.6289 109.378 28.2416C109.605 28.5443 109.935 28.7757 110.194 29.0627C110.696 29.6035 111.166 30.1599 111.572 30.7476C111.686 30.899 111.799 31.0503 111.905 31.2262C111.938 31.293 111.995 31.3687 112.035 31.411C112.222 31.6714 111.962 31.3019 111.946 31.2685C112.11 31.6025 112.353 31.9386 112.549 32.257C112.925 32.9427 113.277 33.6196 113.59 34.3366C113.729 34.6617 113.869 34.9869 113.985 35.3031C114.043 35.4612 114.101 35.6193 114.176 35.8109C114.259 36.0603 114.026 35.3454 114.15 35.7195C114.192 35.8443 114.217 35.9356 114.259 36.0603C114.491 36.7752 114.669 37.4969 114.846 38.2185C115.015 38.9647 115.153 39.7265 115.267 40.4794C115.312 40.8515 115.357 41.2235 115.402 41.5955C115.403 41.678 115.404 41.7604 115.437 41.8272C115.39 41.2903 115.426 41.6044 115.436 41.7447C115.447 41.9675 115.465 42.1658 115.476 42.3886C115.571 44.064 115.513 45.7106 115.352 47.3462C115.311 47.823 115.253 48.2665 115.187 48.7345C115.158 48.915 115.121 49.12 115.115 49.3094C115.094 49.4654 115.079 49.5969 115.034 49.744C115.056 49.6704 115.055 49.588 115.078 49.5144C115.048 49.6125 115.049 49.6949 115.018 49.793C114.839 50.7112 114.668 51.6049 114.441 52.5053C113.445 56.6485 111.936 60.6297 110.419 64.553C110.088 65.4424 110.613 66.5112 111.416 66.9446C112.267 67.3958 113.26 67.1339 113.799 66.3489C117.616 60.8965 119.881 54.488 123.247 48.7598C123.995 47.4777 124.791 46.2134 125.7 45.018C125.888 44.7593 126.099 44.5095 126.28 44.2753C126.374 44.146 126.516 44.0344 126.617 43.8806C126.609 43.9051 126.319 44.2352 126.523 44.0099C126.57 43.9452 126.649 43.8649 126.696 43.8003C127.144 43.3095 127.584 42.8433 128.048 42.3859C128.976 41.4713 129.985 40.6411 131.044 39.9112C131.107 39.8799 131.178 39.8241 131.217 39.784C130.862 40.0629 130.98 39.9425 131.083 39.871C131.217 39.784 131.352 39.6969 131.486 39.6099C131.755 39.4357 132.047 39.2704 132.34 39.1052C132.894 38.7903 133.464 38.5089 134.019 38.2765C134.36 38.129 134.669 37.9971 135.026 37.883C135.089 37.8518 135.145 37.845 135.232 37.8226C134.693 38.006 135.082 37.8763 135.177 37.8294C135.352 37.7846 135.502 37.731 135.677 37.6862C136.32 37.5138 136.98 37.3748 137.649 37.2937C137.816 37.2735 138.007 37.2621 138.174 37.2418C138.254 37.2439 138.31 37.2372 138.389 37.2393C138.772 37.2166 137.983 37.2532 138.334 37.2461C138.684 37.2389 139.035 37.2318 139.402 37.2581C139.769 37.2843 140.112 37.3017 140.472 37.3525C140.623 37.3813 140.807 37.3944 140.959 37.4232C141.111 37.452 141.814 37.6025 141.166 37.4452C141.67 37.5493 142.15 37.6445 142.608 37.3765C142.964 37.18 143.24 36.8989 143.442 36.5088C143.822 35.7195 143.606 34.5189 142.77 34.0186C142.119 33.614 141.476 33.1848 140.847 32.7066C140.565 32.493 140.315 32.2638 140.033 32.0503C139.888 31.9146 139.743 31.7789 139.59 31.6677C140.074 32.0926 139.533 31.592 139.404 31.4896C138.321 30.406 137.324 29.2175 136.462 27.9419C136.429 27.8751 136.372 27.7994 136.332 27.7571C136.153 27.4722 136.405 27.8662 136.422 27.8996C136.34 27.7326 136.202 27.5724 136.096 27.3965C135.884 27.0447 135.688 26.7264 135.5 26.3835C135.124 25.6977 134.756 24.9875 134.451 24.2459C134.138 23.5289 133.85 22.8207 133.569 22.0881C133.544 21.9967 133.519 21.9054 133.469 21.8052C133.486 21.8386 133.627 22.2462 133.511 21.93C133.437 21.7384 133.386 21.5558 133.312 21.3643C133.187 20.9901 133.07 20.5915 132.97 20.2262C132.551 18.7317 132.251 17.1992 132.031 15.6688C131.986 15.2968 131.934 14.9493 131.889 14.5772C131.864 14.4859 131.87 14.379 131.869 14.2965C131.833 13.9824 131.887 14.4124 131.879 14.4369C131.876 14.1896 131.841 13.9579 131.83 13.7351C131.772 12.9754 131.745 12.2001 131.719 11.4247C131.649 8.03597 131.874 4.64686 132.251 1.28648C132.457 -0.578654 132.695 -2.45941 132.981 -4.32242C133.12 -5.20045 133.252 -6.05396 133.392 -6.93198C133.474 -7.36656 133.524 -7.78551 133.606 -8.22009C133.627 -8.37608 133.745 -9.09813 133.65 -8.44965C133.695 -8.67919 133.732 -8.8842 133.777 -9.11374C133.865 -9.65527 133.899 -10.1076 133.653 -10.6086C133.44 -11.0428 133.012 -11.4745 132.547 -11.6187C132.083 -11.763 131.532 -11.8024 131.105 -11.5501C130.67 -11.2732 130.229 -10.8894 130.156 -10.3969C128.988 -3.63779 127.917 3.23933 127.931 10.1619C127.964 16.7635 129.26 23.5307 132.813 29.2455C134.833 32.4803 137.423 35.3512 140.654 37.2832C141.197 36.144 141.715 34.9959 142.258 33.8567C140.707 33.5022 139.214 33.3882 137.629 33.486C136.235 33.5725 134.876 33.8906 133.551 34.3579C130.972 35.2368 128.601 36.7394 126.545 38.5222C124.385 40.3765 122.534 42.618 120.997 45.0574C119.162 47.9339 117.658 51.0418 116.161 54.1251C114.486 57.6074 112.787 61.0809 110.574 64.2275C111.698 64.8343 112.83 65.4166 113.954 66.0234C116.672 58.9348 119.45 51.4851 119.224 43.6093C119.047 37.0368 116.833 30.1215 111.901 25.5647C108.591 22.5098 104.424 20.9154 100.323 19.4546C100.116 20.7182 99.8863 21.9729 99.6802 23.2364C106.005 24.6164 112.418 22.5295 117.479 18.9314C123.093 14.936 126.931 8.72606 129.811 2.4081C131.491 -1.26364 132.795 -5.10203 133.73 -9.0491C133.956 -10.032 133.525 -11.2301 132.5 -11.5541C131.579 -11.8671 130.405 -11.4534 130.156 -10.3969Z" fill="#FB923C"/>
<path d="M48.5483 16.4714C48.3833 18.4632 48.1625 20.4617 47.8936 22.4425C47.7788 23.4127 47.6401 24.3742 47.4772 25.3267C47.4039 25.8196 47.3383 26.288 47.241 26.7721C47.2038 26.9774 47.1589 27.2071 47.1218 27.4123C47.0627 27.7737 47.1141 27.4369 47.1294 27.3878C47.1076 27.5439 47.0857 27.7001 47.0322 27.8719C46.3576 31.7556 45.4904 35.5682 44.4713 39.352C44.0459 40.9739 43.5561 42.5447 42.9622 44.1045C42.8233 44.4637 42.6844 44.823 42.5214 45.1733C42.4361 45.3608 42.3508 45.5482 42.2655 45.7357C42.1802 45.9231 42.2065 46.0971 42.2808 45.6866C42.2666 45.8182 42.1484 45.9388 42.1102 46.0615C41.7525 46.7779 41.3785 47.4609 40.9322 48.1172C40.7211 48.4498 40.4936 48.749 40.2585 49.0727C40.1644 49.2022 40.0146 49.3385 39.9446 49.4768C40.1557 49.1442 40.1021 49.316 40.0233 49.3964C39.9369 49.5014 39.8581 49.5818 39.7717 49.6867C39.2128 50.274 38.621 50.7945 37.9647 51.2638C37.7984 51.3667 37.6486 51.5029 37.4823 51.6058C37.5217 51.5656 37.8226 51.3756 37.5535 51.5499C37.4824 51.6058 37.4112 51.6616 37.3237 51.684C36.9835 51.9143 36.6192 52.1356 36.255 52.3569C35.5658 52.7593 34.8286 53.144 34.099 53.5041C33.306 53.8956 32.5041 54.229 31.6782 54.5536C31.2494 54.7237 30.8206 54.8938 30.3754 55.0305C30.2802 55.0775 30.161 55.1156 30.0735 55.138C30.0177 55.1448 29.6523 55.2836 29.9225 55.1918C30.2168 55.1088 29.8033 55.2299 29.7716 55.2455C29.6523 55.2836 29.5091 55.3128 29.3822 55.3755C27.6013 55.9222 25.7953 56.3776 23.9805 56.775C23.2005 56.9523 22.4917 57.6759 22.5114 58.559C22.5225 59.3841 23.0138 60.3045 23.8233 60.5486C25.3702 61.0102 26.9094 61.4964 28.4267 62.1387C29.4223 62.5609 30.4025 63.0323 31.351 63.5193C31.8892 63.7727 32.4033 64.0173 32.9416 64.2707C33.11 64.3329 33.2709 64.4197 33.4317 64.5064C33.4798 64.5242 33.5039 64.5331 33.5444 64.5754C33.7293 64.671 33.6811 64.6532 33.4076 64.4975C33.4481 64.5398 33.5685 64.5843 33.6167 64.6021C33.9788 64.8179 34.3408 65.0336 34.6876 65.2985C34.994 65.5211 35.2927 65.7682 35.5673 66.0064C35.6559 66.0665 35.7128 66.1423 35.8014 66.2023C36.0115 66.3894 35.4294 65.846 35.7368 66.1511C35.8987 66.3204 36.0443 66.4562 36.2062 66.6255C36.7729 67.2179 37.2762 67.8416 37.7401 68.5055C37.797 68.5812 37.8462 68.6815 37.9031 68.7572C38.1066 69.0513 37.8462 68.6815 37.8298 68.6481C37.8637 68.7975 38.0825 69.0424 38.1481 69.1761C38.3768 69.5616 38.5815 69.9382 38.7861 70.3148C39.1712 71.0591 39.5411 71.8525 39.8387 72.6193C39.9875 73.0026 40.1363 73.386 40.261 73.7605C40.1275 73.328 40.4186 74.2018 40.261 73.7605C40.2862 73.8519 40.319 73.9187 40.3442 74.0101C40.4274 74.2598 40.5105 74.5094 40.5696 74.7502C40.8202 75.5817 41.0467 76.4042 41.2415 77.2425C41.665 79.0684 41.9934 80.9412 42.2496 82.7874C42.3908 83.7975 42.5244 84.8321 42.6415 85.8332C42.6766 86.0651 42.6876 86.2881 42.7226 86.52C42.7401 86.636 42.75 86.7765 42.7675 86.8924C42.7883 87.2559 42.7598 86.9169 42.7587 86.8344C42.8222 87.4052 42.8376 87.9583 42.877 88.5202C43.186 93.1228 43.0956 97.7148 42.6137 102.272C42.4989 103.242 43.325 104.122 44.1739 104.326C45.1749 104.558 45.9176 103.984 46.3047 103.087C49.4513 96.0106 49.9109 87.997 52.656 80.745C52.8638 80.1648 53.1197 79.6025 53.3439 79.0558C53.4139 78.9174 53.4839 78.779 53.5299 78.6318C53.6305 78.3952 53.2969 79.1205 53.4598 78.7702C53.4828 78.6965 53.5222 78.6563 53.5452 78.5827C53.6928 78.2814 53.8404 77.9801 53.988 77.6788C54.5951 76.5071 55.2743 75.362 55.9863 74.2838C56.3779 73.7168 56.7695 73.1497 57.1851 72.5916C57.3732 72.3326 57.5538 72.0982 57.7583 71.8727C57.8524 71.7432 57.9704 71.6226 58.0645 71.4931C58.269 71.2675 57.9781 71.598 57.9464 71.6137C58.0252 71.5333 58.0799 71.444 58.1586 71.3636C59.0238 70.3967 59.9535 69.481 60.9807 68.6833C61.2333 68.4755 61.5102 68.2767 61.7869 68.0778C61.8263 68.0376 62.127 67.8475 61.8262 68.0375C61.5494 68.2364 61.858 68.0219 61.9214 67.9906C62.056 67.9034 62.1905 67.8162 62.3491 67.7379C62.9113 67.3981 63.5141 67.1006 64.1256 66.8611C64.2842 66.7828 64.4592 66.738 64.6102 66.6842C64.8246 66.5992 64.1967 66.8053 64.4275 66.7536C64.515 66.7312 64.6025 66.7088 64.6976 66.6618C65.016 66.5877 65.3103 66.5048 65.6527 66.4396C65.9634 66.3901 66.274 66.3406 66.577 66.3156C66.6328 66.3088 66.9599 66.2928 66.6088 66.3C66.2817 66.316 66.553 66.3067 66.6328 66.3088C66.8243 66.2974 67.008 66.3105 67.1918 66.3236C67.9903 66.3448 68.8621 65.8729 69.0666 65.0452C69.2788 64.193 69.0041 63.3526 68.2941 62.7894C65.5426 60.5968 62.4555 58.9644 59.6646 56.8119C59.3419 56.5559 59.0191 56.2999 58.7041 56.0194C58.6395 55.9682 58.5749 55.917 58.5103 55.8658C58.4698 55.8235 58.2106 55.5361 58.4294 55.7811C58.6482 56.0261 58.3889 55.7388 58.3484 55.6965C58.2675 55.6119 58.1625 55.5184 58.0815 55.4338C57.4831 54.8571 56.9557 54.2244 56.4678 53.5516C56.3945 53.4425 56.3211 53.3333 56.2401 53.2487C56.0695 53.0215 56.2654 53.3401 56.3135 53.3579C56.2337 53.3558 56.0279 52.8966 55.9786 52.7963C55.7576 52.3863 55.5367 51.9763 55.3474 51.5506C55.1909 51.1918 55.0421 50.8084 54.8933 50.4251C54.8189 50.2334 54.7445 50.0417 54.6701 49.85C54.8681 50.3337 54.7445 50.0417 54.7029 49.9169C54.6613 49.792 54.6274 49.6427 54.5618 49.509C54.0704 47.9865 53.7464 46.4437 53.5099 44.8785C53.4486 44.4727 53.4038 44.1003 53.3665 43.7034C53.3403 43.5295 53.3141 43.3556 53.3195 43.166C53.2943 43.0746 53.3009 42.9676 53.2757 42.8762C53.2385 42.4792 53.313 43.2731 53.2681 42.9007C53.2012 42.0823 53.1661 41.2483 53.1233 40.4388C52.9895 36.9956 53.127 33.5432 53.1529 30.1042C53.1546 25.4521 52.9168 20.7937 52.1528 16.1874C51.9875 15.1684 50.8355 14.3873 49.8806 14.6095C48.8381 14.8541 48.2758 15.7961 48.4422 16.8975C48.6327 18.0078 48.7915 19.1338 48.9261 20.251C48.9809 20.7638 49.0597 21.2855 49.0903 21.7895C49.0816 21.7315 49.0607 21.3681 49.0816 21.7315C49.0991 21.8475 49.109 21.988 49.1265 22.1039C49.1462 22.3849 49.1658 22.6658 49.1932 22.9223C49.3313 24.889 49.3895 26.8537 49.3918 28.8252C49.4152 32.3644 49.2788 35.8994 49.358 39.4318C49.4349 42.7992 49.7361 46.2221 50.6739 49.4968C51.1762 51.2423 51.7911 53.0567 52.7539 54.6164C53.7748 56.3343 55.0472 57.762 56.5493 59.0556C59.5459 61.6671 63.1298 63.4282 66.228 65.8857C66.5955 64.7077 66.9629 63.5296 67.338 62.327C61.5555 62.108 56.8859 66.3231 53.6636 70.7168C51.9934 72.9739 50.6219 75.4781 49.5151 78.0801C48.0911 81.4408 47.2294 85.0638 46.4312 88.6555C45.4285 93.0749 44.498 97.521 42.6771 101.638C43.9099 101.902 45.1352 102.19 46.3681 102.454C46.7998 98.316 46.9032 94.112 46.7037 89.933C46.4878 85.7206 46.0159 81.4683 45.1381 77.3126C44.3807 73.8035 43.2635 70.2436 41.3784 67.1665C40.3422 65.4976 39.189 64.0319 37.711 62.7472C36.4102 61.5828 34.8994 60.8334 33.3569 60.0997C32.2323 59.5751 31.1471 59.0102 30.0148 58.5101C28.3366 57.7811 26.6289 57.2327 24.8895 56.7C24.8426 57.969 24.7792 59.2046 24.7323 60.4736C28.1311 59.7305 31.5113 58.7889 34.7174 57.3725C37.8996 55.9473 41.0204 54.1162 43.2507 51.3543C45.3945 48.6972 46.6664 45.3078 47.6276 41.9678C48.7266 38.1861 49.609 34.3244 50.3317 30.4585C51.1889 25.9033 51.8294 21.2681 52.2304 16.6266C52.3047 15.614 51.3967 14.5671 50.4144 14.5329C49.4419 14.6391 48.6214 15.3763 48.5483 16.4714Z" fill="#FB923C"/>
<path d="M125.132 99.575C125.048 101.048 124.892 102.495 124.648 103.964C124.678 103.783 124.7 103.627 124.729 103.447C124.241 106.302 123.418 109.116 122.209 111.705C122.286 111.542 122.356 111.404 122.434 111.241C121.457 113.342 120.231 115.296 118.755 117.02C118.873 116.9 118.967 116.77 119.085 116.65C118.371 117.48 117.616 118.268 116.78 118.971C116.37 119.339 115.912 119.69 115.462 120.016C115.257 120.158 115.052 120.301 114.846 120.444C115.391 120.071 114.949 120.373 114.814 120.46C114.68 120.547 114.546 120.634 114.419 120.697C113.486 121.282 112.479 121.758 111.464 122.176C111.218 122.277 110.948 122.368 110.702 122.469C110.552 122.523 110.044 122.69 110.671 122.485C110.528 122.514 110.401 122.576 110.25 122.63C109.686 122.805 109.106 122.946 108.526 123.087C107.436 123.313 106.37 123.466 105.254 123.519C105.421 123.499 105.58 123.503 105.748 123.483C104.959 123.52 104.17 123.556 103.373 123.618C102.823 123.661 102.305 123.688 101.83 123.923C100.768 124.405 100.492 125.808 101.127 126.781C101.453 127.284 101.999 127.595 102.458 127.929C103.24 128.518 104.006 129.157 104.733 129.836C104.611 129.709 104.483 129.607 104.361 129.48C106.332 131.329 108.154 133.397 109.652 135.646C109.685 135.713 109.725 135.755 109.758 135.822C109.449 135.352 109.571 135.562 109.652 135.646C109.742 135.789 109.815 135.898 109.904 136.04C110.067 136.292 110.223 136.568 110.361 136.811C110.615 137.287 110.869 137.764 111.083 138.281C111.198 138.515 111.281 138.764 111.388 139.022C111.43 139.147 111.471 139.272 111.513 139.397C111.554 139.521 111.621 139.738 111.422 139.172C111.447 139.263 111.48 139.33 111.505 139.421C111.671 139.92 111.83 140.444 111.933 140.974C112.245 142.21 112.413 143.476 112.55 144.757C112.524 144.584 112.521 144.419 112.495 144.245C112.912 149.103 112.291 153.933 111.661 158.705C111.479 159.978 111.321 161.26 111.163 162.542C111.105 162.985 111.361 163.627 111.636 163.947C111.936 164.277 112.298 164.492 112.722 164.594C113.649 164.8 114.536 164.28 114.85 163.357C115.557 161.348 116.263 159.339 116.978 157.306C117.661 155.37 118.281 153.384 119.157 151.519C119.079 151.682 119.009 151.82 118.932 151.983C119.7 150.38 120.588 148.821 121.533 147.337C122.001 146.608 122.494 145.888 122.987 145.167C123.409 144.585 123.816 143.969 124.287 143.405C124.169 143.525 124.075 143.655 123.957 143.775C124.538 143.115 125.2 142.539 125.919 142.039C126.022 141.967 126.125 141.896 126.235 141.8C126.472 141.641 125.8 142.077 126.172 141.831C126.409 141.672 126.638 141.538 126.875 141.38C127.31 141.103 127.761 140.859 128.213 140.616C129.171 140.122 130.17 139.671 131.185 139.252C131.431 139.152 131.669 139.076 131.915 138.975C132.034 138.937 132.153 138.899 132.28 138.836C132.343 138.805 132.407 138.774 132.486 138.776C132.399 138.798 132.034 138.937 132.312 138.821C132.788 138.669 133.288 138.525 133.765 138.373C134.727 138.127 135.705 137.914 136.709 137.875C136.542 137.895 136.382 137.891 136.215 137.911C136.295 137.913 136.375 137.915 136.462 137.893C136.948 137.881 137.433 137.787 137.804 137.459C138.111 137.162 138.305 136.796 138.387 136.361C138.55 135.409 138.018 134.447 137.105 134.11C136.696 133.959 136.295 133.783 135.926 133.592C136.086 133.679 136.223 133.757 136.383 133.843C135.628 133.428 134.904 132.914 134.258 132.32C134.379 132.446 134.508 132.549 134.629 132.676C134.234 132.311 133.869 131.93 133.545 131.509C133.367 131.307 133.22 131.088 133.042 130.886C132.969 130.777 132.871 130.659 132.798 130.55C132.758 130.507 132.725 130.441 132.684 130.398C132.668 130.365 132.652 130.331 132.628 130.323C132.505 130.113 132.807 130.608 132.791 130.574C132.187 129.585 131.647 128.565 131.178 127.49C131.078 127.207 130.947 126.94 130.848 126.657C130.806 126.532 130.748 126.374 130.707 126.249C130.591 125.933 130.823 126.565 130.781 126.441C130.756 126.349 130.723 126.282 130.698 126.191C130.482 125.592 130.323 124.986 130.139 124.371C129.787 123.092 129.522 121.791 129.313 120.483C129.061 118.968 128.873 117.422 128.733 115.893C128.759 116.067 128.761 116.232 128.788 116.405C128.392 111.911 128.411 107.378 128.661 102.875C128.719 101.83 128.793 100.818 128.875 99.7818C128.949 98.7699 128.041 97.7236 127.06 97.6892C126.024 97.7441 125.204 98.4806 125.132 99.575C124.941 101.993 124.798 104.429 124.759 106.877C124.702 109.727 124.765 112.622 124.971 115.488C125.211 118.503 125.579 121.538 126.321 124.492C126.97 127.139 127.9 129.834 129.351 132.148C130.051 133.254 130.816 134.33 131.769 135.229C132.827 136.222 133.922 137.009 135.23 137.629C135.487 137.751 135.752 137.849 135.992 137.938C136.198 136.674 136.429 135.419 136.635 134.155C134.419 134.211 132.329 134.807 130.274 135.552C128.218 136.297 126.206 137.249 124.38 138.461C123.471 139.055 122.61 139.667 121.83 140.446C120.926 141.37 120.183 142.463 119.448 143.531C117.672 146.13 116.05 148.84 114.886 151.801C114.23 153.474 113.664 155.206 113.081 156.905C112.482 158.653 111.867 160.368 111.269 162.116C112.5 162.379 113.724 162.667 114.956 162.931C115.612 157.731 116.507 152.537 116.436 147.259C116.384 144.587 116.139 141.844 115.339 139.251C114.946 137.93 114.434 136.647 113.796 135.427C113.044 134.055 112.141 132.737 111.183 131.508C110.136 130.136 108.986 128.836 107.75 127.641C107.054 126.947 106.32 126.292 105.554 125.654C104.933 125.151 104.297 124.697 103.668 124.219C103.79 124.346 103.919 124.448 104.04 124.575C104.188 124.876 104.319 125.143 104.466 125.444C104.492 125.617 104.495 125.782 104.521 125.956C104.492 126.137 104.47 126.293 104.44 126.473C104.363 126.636 104.293 126.774 104.215 126.937C104.097 127.058 104.003 127.187 103.885 127.307C103.672 127.475 103.396 127.674 103.149 127.692C103.205 127.685 103.236 127.669 103.292 127.663C103.435 127.633 103.571 127.629 103.714 127.6C104.104 127.552 104.51 127.538 104.917 127.524C104.75 127.545 104.59 127.541 104.423 127.561C105.539 127.508 106.679 127.464 107.801 127.304C109.09 127.124 110.338 126.82 111.561 126.424C114.165 125.553 116.572 124.282 118.694 122.55C122.773 119.27 125.596 114.515 127.203 109.447C128.15 106.406 128.697 103.19 128.893 99.9801C128.943 98.9593 128.092 97.9063 127.079 97.8876C126.048 97.753 125.18 98.4717 125.132 99.575Z" fill="#FB923C"/>
<path d="M169.738 42.2589C169.648 43.236 169.534 44.2043 169.395 45.1637C169.33 45.6312 169.257 46.1231 169.184 46.615C169.163 46.7709 169.069 47.501 169.141 46.9267C169.105 47.2138 169.045 47.4921 168.993 47.7459C168.629 49.6871 168.21 51.635 167.719 53.5562C166.729 57.4233 165.515 61.2349 164.077 64.9088C163.715 65.8128 163.354 66.7168 162.984 67.6453C162.806 68.0439 162.645 68.4759 162.468 68.8745C162.383 69.0615 162.298 69.2486 162.205 69.4601C162.174 69.5581 162.12 69.6472 162.097 69.7206C162.027 69.8587 162.074 69.7941 162.19 69.5091C162.167 69.5826 162.12 69.6472 162.097 69.7206C161.393 71.2081 160.577 72.6268 159.696 73.9943C159.243 74.6736 158.767 75.3441 158.274 75.9812C158.016 76.2953 157.781 76.6182 157.523 76.9323C157.468 77.0214 157.398 77.0771 157.343 77.1662C157.632 76.7542 157.476 76.9969 157.39 77.1016C157.233 77.262 157.092 77.4558 156.935 77.6162C155.837 78.8215 154.666 79.9179 153.366 80.9119C153.012 81.1905 152.634 81.4603 152.263 81.7055C152.16 81.7769 151.978 81.846 152.365 81.6342C152.263 81.7055 152.136 81.768 152.034 81.8393C151.837 81.9575 151.663 82.0845 151.466 82.2027C150.708 82.6598 149.941 83.059 149.126 83.4405C148.723 83.619 148.319 83.7975 147.892 83.9671C147.678 84.052 147.448 84.1034 147.258 84.1971C147.669 83.9941 147.496 84.1212 147.346 84.1748C147.227 84.2127 147.108 84.2507 146.965 84.2798C146.109 84.5367 145.212 84.7514 144.314 84.8837C143.528 85.0025 142.847 85.8156 142.85 86.6635C142.855 86.9929 142.907 87.3401 143.055 87.6404C143.227 88.0319 143.736 88.5477 144.159 88.6496C145.828 89.0484 147.467 89.5451 149.059 90.1888C149.844 90.5062 150.597 90.8392 151.366 91.2055C151.55 91.301 151.759 91.4054 151.943 91.5009C152.079 91.5787 152.769 91.9429 152.175 91.6142C152.561 91.8385 152.953 92.0384 153.338 92.2627C154.815 93.1091 156.253 94.0779 157.612 95.1269C158.304 95.6558 158.988 96.2092 159.633 96.8028C159.778 96.9384 159.907 97.0406 160.052 97.1762C160.133 97.2607 160.221 97.3207 160.302 97.4052C159.859 97.0228 160.157 97.2695 160.262 97.3629C160.592 97.6764 160.899 97.9809 161.23 98.2944C162.473 99.546 163.645 100.853 164.714 102.232C165.249 102.922 165.76 103.602 166.231 104.323C166.361 104.507 166.491 104.692 166.621 104.876C166.67 104.976 166.751 105.061 166.8 105.161C166.507 104.725 166.637 104.91 166.71 105.019C166.979 105.446 167.231 105.839 167.476 106.258C168.355 107.73 169.157 109.282 169.847 110.849C170.208 111.665 170.538 112.497 170.86 113.354C170.91 113.536 170.992 113.703 171.042 113.885C170.803 113.278 171.084 114.01 171.118 114.159C171.251 114.591 171.384 115.022 171.518 115.454C172.061 117.321 172.485 119.225 172.749 121.126C172.812 121.613 172.874 122.1 172.92 122.554C172.957 122.95 172.882 122.076 172.911 122.496C172.921 122.637 172.923 122.801 172.933 122.942C172.944 123.164 172.955 123.387 172.966 123.609C173.028 124.615 173.034 125.628 172.992 126.623C172.966 127.651 173.792 128.694 174.803 128.713C175.281 128.726 175.797 128.616 176.143 128.279C176.527 127.903 176.689 127.471 176.777 126.93C176.784 126.906 176.857 126.414 176.814 126.725C176.77 127.037 176.836 126.569 176.843 126.545C176.873 126.365 176.902 126.184 176.931 126.004C177.005 125.594 177.079 125.185 177.177 124.784C177.32 124.154 177.463 123.524 177.629 122.903C177.903 121.939 178.232 120.968 178.505 120.004C178.879 118.804 179.173 117.602 179.426 116.358C179.613 115.416 179.775 114.465 179.937 113.515C180.033 112.949 180.128 112.384 180.232 111.794C180.238 111.687 180.269 111.589 180.275 111.482C180.348 110.99 180.232 111.794 180.275 111.482C180.335 111.204 180.363 110.942 180.423 110.663C180.749 108.845 181.106 107.01 181.607 105.229C181.865 104.314 182.139 103.432 182.493 102.553C182.647 102.145 182.808 101.713 183.01 101.324C182.754 101.803 183.134 101.097 183.165 100.999C183.289 100.772 183.382 100.56 183.506 100.333C183.886 99.6269 184.331 98.9721 184.792 98.3506C184.987 98.0677 185.207 97.7937 185.426 97.5197C185.519 97.3905 185.613 97.2614 185.723 97.1655C185.778 97.0764 185.849 97.0207 185.903 96.9316C186.193 96.6019 185.77 97.1009 185.896 96.9561C186.876 95.8711 187.913 94.8617 189.047 93.9702C189.362 93.7317 189.781 93.5043 190.079 93.2324C190.048 93.248 189.709 93.4777 189.977 93.3038C190.08 93.2324 190.174 93.1856 190.277 93.1142C190.443 93.0117 190.608 92.9091 190.774 92.8065C191.461 92.4052 192.165 92.0372 192.908 91.7114C193.28 91.5485 193.676 91.3945 194.072 91.2405C194.373 91.1333 193.977 91.2873 193.953 91.2785C194.065 91.265 194.167 91.1937 194.278 91.1802C194.484 91.1199 194.691 91.0595 194.873 90.9903C195.666 90.7647 196.46 90.6214 197.294 90.5203C198.073 90.4259 198.77 89.5638 198.758 88.7404C198.746 87.8345 198.25 87.1051 197.45 86.7543C196.625 86.3947 195.808 86.0105 194.998 85.6019C194.814 85.5064 194.629 85.4109 194.445 85.3154C194.349 85.2799 194.268 85.1954 194.172 85.1599C194.66 85.3129 194.333 85.2465 194.196 85.1688C193.787 84.9355 193.37 84.7268 192.985 84.5024C191.445 83.605 189.951 82.643 188.536 81.6007C187.82 81.0629 187.128 80.5339 186.451 79.956C186.137 79.6759 185.815 79.4203 185.477 79.1314C185.437 79.0891 184.994 78.7068 184.994 78.7068C185.058 78.7579 185.115 78.8335 185.179 78.8847C185.115 78.8335 185.058 78.7579 184.994 78.7068C184.913 78.6223 184.808 78.529 184.727 78.4445C183.429 77.1996 182.233 75.8833 181.123 74.4624C180.572 73.7397 180.02 73.0169 179.533 72.263C179.476 72.1874 179.443 72.1206 179.386 72.045C179.703 72.4898 179.435 72.1451 179.386 72.045C179.28 71.8693 179.15 71.6847 179.045 71.509C178.792 71.1154 178.572 70.7061 178.351 70.2968C177.927 69.5116 177.51 68.702 177.148 67.8856C176.771 67.0358 176.48 66.1636 176.126 65.3227C176.34 65.8388 176.085 65.1982 176.051 65.0491C175.984 64.8333 175.91 64.642 175.844 64.4262C175.694 63.9612 175.568 63.5051 175.443 63.0489C175.191 62.1367 174.996 61.2177 174.8 60.2987C174.433 58.4697 174.177 56.6271 173.984 54.7533C173.983 54.671 173.958 54.5798 173.957 54.4974C173.956 54.4151 173.93 54.3239 173.929 54.2415C173.949 54.5219 173.965 54.5553 173.947 54.3572C173.919 54.1013 173.9 53.8209 173.872 53.565C173.842 53.062 173.811 52.5591 173.78 52.0561C173.726 51.0257 173.68 49.9708 173.65 48.9492C173.589 46.8238 173.576 44.7161 173.563 42.6085C173.557 41.5958 172.787 40.5462 171.752 40.5184C170.708 40.4328 169.731 41.1638 169.738 42.2589C169.755 49.9395 169.8 57.8761 172.162 65.3316C173.361 69.1339 175.12 72.6796 177.481 75.9287C179.712 78.9931 182.431 81.692 185.377 84.0101C188.732 86.6438 192.431 88.7763 196.298 90.4524C196.345 89.1859 196.407 87.9529 196.454 86.6864C190.144 87.439 184.636 91.547 181.142 96.8368C179.013 100.064 177.894 103.829 177.158 107.653C176.958 108.726 176.765 109.775 176.589 110.857C176.537 111.11 176.516 111.349 176.464 111.602C176.457 111.709 176.427 111.807 176.42 111.914C176.348 112.406 176.464 111.602 176.413 111.939C176.34 112.43 176.235 112.938 176.163 113.43C175.881 114.937 175.599 116.444 175.173 117.898C174.854 119.009 174.487 120.102 174.167 121.213C173.674 122.97 173.325 124.779 173.023 126.607C174.274 126.715 175.533 126.798 176.808 126.914C177.034 119.57 175.07 112.125 171.456 105.681C167.849 99.2129 162.653 93.55 156.464 89.7043C153.012 87.5537 149.248 85.8886 145.351 84.9938C145.304 86.2602 145.242 87.4933 145.195 88.7597C152.129 87.637 157.966 83.1592 162.052 77.5149C164.169 74.5836 165.725 71.3079 167.079 67.9034C168.596 64.1493 169.897 60.3153 170.958 56.3926C172.17 51.8976 173.094 47.2962 173.556 42.6329C173.653 41.6313 172.724 40.5774 171.744 40.5429C170.628 40.4306 169.858 41.1837 169.738 42.2589Z" fill="#FB923C"/>
</svg>
