<svg width="48" height="48" viewBox="0 0 48 48" fill="none" xmlns="http://www.w3.org/2000/svg">
<path d="M39.4958 10C42.3305 13.9405 44 18.7753 44 24C44 29.2247 42.3305 34.0595 39.4958 38M31.4906 16C33.0724 18.2677 34 21.0255 34 24C34 26.9745 33.0724 29.7323 31.4906 32M19.2686 8.73138L12.9373 15.0627C12.5914 15.4087 12.4184 15.5816 12.2166 15.7053C12.0376 15.8149 11.8425 15.8958 11.6385 15.9447C11.4083 16 11.1637 16 10.6745 16H7.2C6.0799 16 5.51984 16 5.09202 16.218C4.71569 16.4097 4.40973 16.7157 4.21799 17.092C4 17.5198 4 18.0799 4 19.2V28.8C4 29.9201 4 30.4802 4.21799 30.908C4.40973 31.2843 4.71569 31.5903 5.09202 31.782C5.51984 32 6.07989 32 7.2 32H10.6745C11.1637 32 11.4083 32 11.6385 32.0553C11.8425 32.1043 12.0376 32.1851 12.2166 32.2947C12.4184 32.4184 12.5914 32.5914 12.9373 32.9373L19.2686 39.2686C20.1254 40.1254 20.5538 40.5538 20.9215 40.5827C21.2407 40.6078 21.5525 40.4787 21.7604 40.2352C22 39.9547 22 39.3489 22 38.1373V9.86275C22 8.65112 22 8.0453 21.7604 7.76477C21.5525 7.52136 21.2407 7.39219 20.9215 7.4173C20.5538 7.44625 20.1254 7.87462 19.2686 8.73138Z" stroke="#030712" stroke-width="2" stroke-linecap="round" stroke-linejoin="round"/>
</svg>
