<svg width="141" height="72" viewBox="0 0 141 72" fill="none" xmlns="http://www.w3.org/2000/svg">
<g clip-path="url(#clip0_57_3057)">
<path d="M2.32195 36.2227C6.12673 43.8104 10.6262 50.9699 15.6496 57.8039C16.9125 59.5112 20.4779 57.3968 20.8333 55.7944C22.2696 49.469 23.6445 43.1254 25.0502 36.791L19.8383 38.8055C21.3492 42.6471 22.8561 46.5475 25.1936 49.9664C26.1543 51.3642 27.1458 52.7711 28.9921 52.85C30.8383 52.9288 32.964 51.7962 34.109 50.3004C35.1819 48.8901 35.5063 47.0317 35.9362 45.3579C36.4637 43.3327 36.9415 41.2729 37.3487 39.2255C38.1763 35.0413 38.8521 30.7389 38.9937 26.4587C39.0633 24.3115 33.9144 26.2713 33.7285 28.0906C33.0354 34.589 32.2328 40.9616 30.5518 47.3014C30.3616 48.0322 30.1764 48.7912 29.9108 49.5064C29.6012 50.302 29.2545 50.2329 30.7934 49.7273C32.7005 49.0837 31.9337 49.5975 31.4804 49.0099C30.5572 47.8233 29.7069 46.6382 28.9635 45.3179C27.3688 42.4787 26.1745 39.4377 24.9827 36.4109C24.6053 35.4322 22.7911 35.9431 22.1651 36.185C21.1452 36.5839 20.0319 37.2753 19.7708 38.4254C18.3651 44.7599 16.9429 51.0827 15.5821 57.4238L20.7658 55.4142C15.6421 48.6706 11.2123 41.4117 7.37017 33.8597C6.47882 32.1155 1.46379 34.5017 2.32195 36.2227Z" fill="#FB923C"/>
<path d="M53.3558 23.8071C49.3806 27.9547 46.1608 33.8997 46.0519 39.757C45.9977 42.4823 46.7971 45.3465 49.0627 47.05C51.3283 48.7535 54.1401 48.8642 56.7158 48.465C62.4503 47.5921 68.0142 43.874 71.3221 39.1623C74.0708 35.2325 76.9486 27.8524 72.2903 24.2211C69.8271 22.3058 66.3701 22.1645 63.4612 22.8988C59.5945 23.8902 56.2823 26.3662 53.3766 29.0024C52.7144 29.6137 52.0883 30.756 53.2788 31.1546C54.4693 31.5531 56.0636 30.7037 56.9695 29.991C59.9202 27.6083 63.4765 24.3773 67.3295 27.077C70.9668 29.6261 69.054 35.3971 67.1439 38.481C66.1367 40.0975 64.7213 41.6268 63.2451 42.7312C61.7688 43.8356 60.3222 44.6152 58.633 44.9297C56.8144 45.2526 54.9688 45.0139 53.518 43.8047C51.8108 42.3796 51.337 40.0385 51.3975 37.922C51.5624 32.7082 54.3251 27.6286 57.8694 23.9206C58.7056 23.0606 58.0604 22.1295 57.0054 22.0845C55.5995 22.0291 54.2731 22.831 53.3392 23.7955L53.3558 23.8071Z" fill="#FB923C"/>
<path d="M78.7221 24.0812C81.8058 30.2285 85.2335 36.1841 89.0053 41.9478C90.1006 43.6122 93.76 41.6991 94.2963 40.2968C96.3662 34.9191 97.8927 29.3474 98.8933 23.6803L93.7514 26.089C98.0851 29.2842 102.228 41.3139 109.054 34.7141C115.284 28.6849 113.192 19.4425 116.104 12.0127C116.575 10.811 115.251 10.5666 114.356 10.6821C113.105 10.846 111.633 11.6448 111.038 12.7961C109.148 16.4863 109.019 20.677 108.513 24.7026C108.072 28.1209 107.303 31.9753 104.549 34.323L108.432 33.0963C106.079 32.454 104.634 30.4595 103.322 28.5577C101.931 26.5391 100.573 24.4568 98.566 22.9832C97.0431 21.8594 93.7221 23.7125 93.4241 25.392C92.4747 30.7741 91.0084 36.0301 89.0486 41.1269L94.3396 39.4759C90.5703 33.7262 87.1426 27.7707 84.0564 21.6093C83.1334 19.769 77.8066 22.2832 78.713 24.1119L78.7221 24.0812Z" fill="#FB923C"/>
<path d="M126.459 2.92746L126.435 18.3545C126.422 23.4397 126.06 28.6886 126.522 33.7475C126.722 36.021 131.648 33.8685 131.801 32.1131C132.25 27.0232 131.913 21.7678 131.921 16.6544L131.945 1.22734C131.946 -0.980195 126.472 0.950194 126.459 2.92746Z" fill="#FB923C"/>
<path d="M129.217 50.1585C129.915 49.9911 130.566 49.6432 131.172 49.2887C131.553 49.0612 131.913 48.7941 132.223 48.4921C132.794 47.9406 133.321 47.3095 133.577 46.538C133.757 45.9977 133.891 45.4368 133.805 44.8711C133.747 44.5473 133.701 44.2069 133.576 43.9097C133.45 43.6125 133.215 43.3494 132.995 43.0978L132.584 42.9095C132.294 42.8303 132.013 42.8075 131.717 42.8601C131.098 42.8973 130.519 43.0728 129.954 43.3328C127.841 44.2889 125.808 46.1893 125.567 48.5992C125.517 49.0582 125.904 49.3526 126.289 49.473C126.563 49.5406 126.843 49.5634 127.128 49.5274C127.462 49.5262 127.8 49.4661 128.115 49.3522C128.802 49.1285 129.514 48.7988 130.036 48.2994L130.467 47.8599C130.683 47.6036 130.822 47.3177 130.863 46.9764C130.888 46.8703 130.912 46.7642 130.937 46.6582L130.824 47.0849C130.937 46.6582 131.126 46.2471 131.365 45.8707L131.082 46.3275C131.228 46.0838 131.407 45.8632 131.605 45.6683L131.162 46.1244C131.323 45.9652 131.484 45.806 131.678 45.6699L131.101 46.1063C131.255 45.9918 131.412 45.8914 131.583 45.7884L130.895 46.172C131 46.1097 131.108 46.0616 131.23 46.0109L127.928 45.9289C128.169 46.2202 128.316 46.5572 128.381 46.9232L128.309 46.5149C128.374 46.881 128.354 47.262 128.257 47.6134L128.381 47.17C128.311 47.4294 128.196 47.6822 128.064 47.9234L128.359 47.45C128.268 47.5968 128.161 47.7319 128.052 47.853L128.506 47.3803C128.42 47.4682 128.32 47.5586 128.217 47.635L128.794 47.1985C128.717 47.2558 128.64 47.313 128.546 47.3587L129.248 46.9726C129.168 47.0158 129.1 47.0424 129.021 47.0856L129.769 46.793C129.673 46.8246 129.576 46.8562 129.48 46.8878C129.093 47.0002 128.73 47.1663 128.388 47.3721C128.053 47.5333 127.743 47.7482 127.453 48.0029C127.196 48.1937 127.006 48.4309 126.851 48.7053C126.698 48.9067 126.608 49.1404 126.58 49.3923L126.653 49.8006C126.804 50.0787 127.036 50.2408 127.341 50.3174C127.98 50.4798 128.624 50.3365 129.251 50.1816L129.217 50.1585Z" fill="#FB923C"/>
</g>
<defs>
<clipPath id="clip0_57_3057">
<rect width="133.802" height="48.9734" fill="white" transform="translate(0 23.3905) rotate(-10.0678)"/>
</clipPath>
</defs>
</svg>
